<mxfile host="app.diagrams.net" modified="2024-06-20T05:47:59.670Z" agent="Mozilla/5.0 (Windows NT 10.0; Win64; x64) AppleWebKit/537.36 (KHTML, like Gecko) Chrome/126.0.0.0 Safari/537.36" version="24.5.5" etag="XAQ2RUi304yyDifbDxq7" type="github">
  <diagram name="Page-1" id="Vned0AJL_Sf1EVz8iLoT">
    <mxGraphModel>
      <root>
        <mxCell id="0" />
        <mxCell id="1" parent="0" />
      </root>
    </mxGraphModel>
  </diagram>
</mxfile>
